<svg xmlns="http://www.w3.org/2000/svg" width="74" height="75" viewBox="0 0 74 75">
  <g id="Group_1713" data-name="Group 1713" transform="translate(-268.719 -176)">
    <ellipse id="Ellipse_30" data-name="Ellipse 30" cx="37" cy="37.5" rx="37" ry="37.5" transform="translate(268.719 176)" fill="#fff"/>
    <g id="phone-call" transform="translate(286.462 193.501)">
      <g id="Group_176" data-name="Group 176">
        <path id="Path_92" data-name="Path 92" d="M264.12,17.654a1.166,1.166,0,1,0,2.332,0A15.322,15.322,0,0,1,281.774,2.332a1.166,1.166,0,0,0,0-2.332A17.654,17.654,0,0,0,264.12,17.654Z" transform="translate(-264.12)"/>
        <path id="Path_93" data-name="Path 93" d="M.7,40.464a2.365,2.365,0,0,0,0,3.342L2.7,45.813a2.345,2.345,0,0,0,1.671.693,2.378,2.378,0,0,0,.656-.093l.422.421A8.14,8.14,0,0,0,11.4,49.04a16.338,16.338,0,0,0,4.895-.833A33.7,33.7,0,0,0,29.352,39.79a33.691,33.691,0,0,0,8.417-13.051c1.416-4.469,1.015-8.207-1.12-10.581-.032-.04-.675-.689-.675-.689a2.363,2.363,0,0,0-.6-2.327l-2.008-2.008a2.362,2.362,0,0,0-3.342,0l-7.721,7.72a2.365,2.365,0,0,0,0,3.342L24.312,24.2a2.356,2.356,0,0,0,1.672.691,2.422,2.422,0,0,0,.656-.092l.757.757c.539.539-.288,3.889-4.337,7.938s-7.4,4.876-7.938,4.337h0l-.758-.757a2.363,2.363,0,0,0-.6-2.328l-2.008-2.007a2.365,2.365,0,0,0-3.342,0Zm1.671,1.671,7.721-7.72,2.008,2.008-7.721,7.72S2.366,42.135,2.366,42.135ZM6.91,44.95,12.9,38.957l.548.55h0a2.981,2.981,0,0,0,2.2.83c2.582,0,6.181-2.263,9.084-5.167,3.88-3.88,6.616-9,4.339-11.279h0l-.55-.55,5.992-5.992.213.213c1.7,1.7,1.982,4.706.791,8.463a31.294,31.294,0,0,1-7.834,12.1,31.294,31.294,0,0,1-12.1,7.834c-3.757,1.191-6.762.91-8.461-.791h0ZM25.983,22.534l-2.007-2.009L31.7,12.8,33.7,14.812l-3.861,3.86L26.012,22.5l-.028.028Z" transform="translate(0.79 -9.648)"/>
      </g>
      <path id="Path_94" data-name="Path 94" d="M352.048,321.954l-7.617,7.617s1.979,1.981,1.981,1.981l7.617-7.617Z" transform="translate(-341.306 -296.992)" fill="#fff"/>
      <path id="Path_95" data-name="Path 95" d="M264.119,89.627a1.166,1.166,0,0,0,2.332,0,9.41,9.41,0,0,1,9.409-9.409,1.166,1.166,0,1,0,0-2.332,11.741,11.741,0,0,0-11.741,11.741Z" transform="translate(-258.087 -71.855)" fill="#23bde4"/>
      <path id="Path_96" data-name="Path 96" d="M36.579,121.517l-5.911,5.912.21.21h0c1.677,1.678,4.641,1.955,8.348.78A30.874,30.874,0,0,0,51.16,120.69a30.874,30.874,0,0,0,7.729-11.933c1.175-3.706.9-6.671-.78-8.349l-.21-.21-5.911,5.911.542.542h0c2.246,2.249-.454,7.3-4.281,11.128-2.865,2.865-6.415,5.1-8.962,5.1a2.941,2.941,0,0,1-2.166-.818h0Z" transform="translate(-22.543 -92.073)" fill="#23bde4"/>
      <path id="Path_97" data-name="Path 97" d="M264.12,161.6a1.167,1.167,0,0,0,1.166,1.166h0a1.165,1.165,0,0,0,1.165-1.166,3.431,3.431,0,0,1,1.024-2.472,3.386,3.386,0,0,1,2.471-1.024h0a1.166,1.166,0,1,0,0-2.332h0a5.828,5.828,0,0,0-5.826,5.827Z" transform="translate(-252.101 -143.752)" fill="#23bde4"/>
      <path id="Path_98" data-name="Path 98" d="M63.631,48.771l1.98,1.982h0l.028-.028,3.78-3.781,3.809-3.808-1.981-1.981Z" transform="translate(-38.668 -38.029)" fill="#fff"/>
    </g>
  </g>
</svg>
