<svg xmlns="http://www.w3.org/2000/svg" width="74" height="74" viewBox="0 0 74 74">
  <g id="Group_1713" data-name="Group 1713" transform="translate(-269 -176)">
    <circle id="Ellipse_30" data-name="Ellipse 30" cx="37" cy="37" r="37" transform="translate(269 176)" fill="#fff"/>
    <g id="phone-call" transform="translate(286 193)">
      <g id="Group_176" data-name="Group 176" transform="translate(0)">
        <path id="Path_92" data-name="Path 92" d="M282.94,17.654a1.166,1.166,0,1,1-2.332,0A15.322,15.322,0,0,0,265.286,2.332a1.166,1.166,0,0,1,0-2.332A17.654,17.654,0,0,1,282.94,17.654Z" transform="translate(-243.549)"/>
        <path id="Path_93" data-name="Path 93" d="M37.91,40.464a2.365,2.365,0,0,1,0,3.342L35.9,45.813a2.345,2.345,0,0,1-1.671.693,2.378,2.378,0,0,1-.656-.093l-.422.421A8.14,8.14,0,0,1,27.2,49.04a16.338,16.338,0,0,1-4.895-.833A33.7,33.7,0,0,1,9.253,39.79,33.691,33.691,0,0,1,.836,26.739c-1.416-4.469-1.015-8.207,1.12-10.581.032-.04.675-.689.675-.689a2.363,2.363,0,0,1,.6-2.327l2.008-2.008a2.362,2.362,0,0,1,3.342,0l7.721,7.72a2.365,2.365,0,0,1,0,3.342L14.293,24.2a2.356,2.356,0,0,1-1.672.691,2.422,2.422,0,0,1-.656-.092l-.758.757c-.539.539.288,3.889,4.337,7.938s7.4,4.876,7.938,4.337h0l.758-.757a2.363,2.363,0,0,1,.6-2.328l2.008-2.007a2.365,2.365,0,0,1,3.342,0Zm-1.671,1.671-7.721-7.72L26.51,36.422l7.721,7.72S36.239,42.135,36.239,42.135ZM31.695,44.95,25.7,38.957l-.548.55h0a2.981,2.981,0,0,1-2.2.83c-2.582,0-6.181-2.263-9.084-5.167-3.88-3.88-6.616-9-4.339-11.279h0l.55-.55L4.093,17.349l-.213.213c-1.7,1.7-1.982,4.706-.791,8.463a31.294,31.294,0,0,0,7.834,12.1,31.294,31.294,0,0,0,12.1,7.834c3.757,1.191,6.762.91,8.461-.791h0ZM12.622,22.534l2.007-2.009L6.908,12.8,4.9,14.812l3.861,3.86L12.593,22.5l.028.028Z" transform="translate(-0.004 -9.648)"/>
      </g>
      <path id="Path_94" data-name="Path 94" d="M346.412,321.954l7.617,7.617s-1.979,1.981-1.981,1.981l-7.617-7.617Z" transform="translate(-317.762 -296.992)" fill="#fff"/>
      <path id="Path_95" data-name="Path 95" d="M277.026,89.627a1.166,1.166,0,0,1-2.332,0,9.41,9.41,0,0,0-9.409-9.409,1.166,1.166,0,1,1,0-2.332,11.741,11.741,0,0,1,11.741,11.741Z" transform="translate(-243.666 -71.855)" fill="#23bde4"/>
      <path id="Path_96" data-name="Path 96" d="M53.694,121.517l5.911,5.912-.21.21h0c-1.677,1.678-4.641,1.955-8.348.78a30.874,30.874,0,0,1-11.933-7.729,30.874,30.874,0,0,1-7.729-11.933c-1.175-3.706-.9-6.671.78-8.349l.21-.21,5.911,5.911-.542.542h0c-2.246,2.249.454,7.3,4.281,11.128,2.865,2.865,6.415,5.1,8.962,5.1a2.941,2.941,0,0,0,2.166-.818h0Z" transform="translate(-28.34 -92.073)" fill="#23bde4"/>
      <path id="Path_97" data-name="Path 97" d="M271.113,161.6a1.167,1.167,0,0,1-1.166,1.166h0a1.165,1.165,0,0,1-1.165-1.166,3.431,3.431,0,0,0-1.024-2.472,3.386,3.386,0,0,0-2.471-1.024h0a1.166,1.166,0,1,1,0-2.332h0a5.828,5.828,0,0,1,5.826,5.827Z" transform="translate(-243.741 -143.752)" fill="#23bde4"/>
      <path id="Path_98" data-name="Path 98" d="M73.229,48.771l-1.98,1.982h0l-.028-.028-3.78-3.781-3.809-3.808,1.981-1.981Z" transform="translate(-58.8 -38.029)" fill="#fff"/>
    </g>
  </g>
</svg>
