<svg xmlns="http://www.w3.org/2000/svg" width="30.22" height="30.22" viewBox="0 0 30.22 30.22">
  <g id="money" transform="translate(-0.007)">
    <g id="Group_162" data-name="Group 162" transform="translate(25.034 26.679)">
      <g id="Group_161" data-name="Group 161">
        <path id="Path_69" data-name="Path 69" d="M68.176,452.174a.59.59,0,1,1-.173.417A.594.594,0,0,1,68.176,452.174Z" transform="translate(-68.003 -452.001)" fill="#fff"/>
      </g>
    </g>
    <g id="Group_164" data-name="Group 164" transform="translate(2.34 10.625)">
      <g id="Group_163" data-name="Group 163">
        <path id="Path_70" data-name="Path 70" d="M452.627,180.181a.588.588,0,1,1-.174.417A.593.593,0,0,1,452.627,180.181Z" transform="translate(-452.454 -180.008)" fill="#fff"/>
      </g>
    </g>
    <g id="Group_166" data-name="Group 166" transform="translate(0.007)">
      <g id="Group_165" data-name="Group 165">
        <path id="Path_71" data-name="Path 71" d="M.18.173A.591.591,0,0,1,.6,0h14.52a.59.59,0,0,1,.59.59V2.279l5.595,1.5a.59.59,0,0,1,.417.723l-2.9,10.821,2.509,2.508a1.77,1.77,0,0,1,1.462-.773h5.666a1.773,1.773,0,0,1,1.771,1.771v9.621a1.773,1.773,0,0,1-1.771,1.771H22.79a1.774,1.774,0,0,1-1.719-1.345l-.7.612a2.974,2.974,0,0,1-1.955.733H.6a.59.59,0,0,1-.59-.59V.59A.591.591,0,0,1,.18.173ZM22.2,28.449a.591.591,0,0,0,.59.59h5.666a.591.591,0,0,0,.59-.59V18.829a.591.591,0,0,0-.59-.59H26.213v6.8a.59.59,0,0,1-1.181,0v-6.8H22.79a.591.591,0,0,0-.59.59v9.621ZM20.427,4.765,15.707,3.5V5.688l.4.106a.59.59,0,0,1,.417.723,1.591,1.591,0,0,0,1.124,1.946.59.59,0,0,1,.417.724l-2.3,8.519h1.185l.61-2.388a.589.589,0,0,1,.1-.207ZM15.707,8.395v4.98l1.077-3.986A2.765,2.765,0,0,1,15.707,8.395ZM7.228,29.039H18.415a1.794,1.794,0,0,0,1.179-.442l1.425-1.243V19.191l-2.577-2.577-.467,1.829a.59.59,0,0,1-.572.444H5.8a.826.826,0,1,0,0,1.653h5.946a.59.59,0,1,1,0,1.18H3.951a.826.826,0,1,0,0,1.653h7.794a.59.59,0,1,1,0,1.18H5.214a.826.826,0,1,0,0,1.653h6.531a.59.59,0,1,1,0,1.18H7.228a.826.826,0,1,0,0,1.652Zm-6.04,0H5.4a2,2,0,0,1,0-1.653H5.214a2.005,2.005,0,0,1-1.794-2.9,2.005,2.005,0,0,1-1.08-3.13V13.871a.59.59,0,0,1,1.18,0v6.716a2.007,2.007,0,0,1,.43-.047h.019A2.005,2.005,0,0,1,5.8,17.707h.949a2.825,2.825,0,1,1,2.219,0h3.226V6.484a2.778,2.778,0,0,1-2.116-2.116H5.637A2.778,2.778,0,0,1,3.521,6.484V8.32a.59.59,0,0,1-1.181,0V5.958a.59.59,0,0,1,.59-.59A1.591,1.591,0,0,0,4.52,3.778a.59.59,0,0,1,.59-.59H10.6a.59.59,0,0,1,.59.59,1.591,1.591,0,0,0,1.589,1.589.59.59,0,0,1,.59.59v11.75h1.153V1.181H1.187Zm6.67-12.285A1.644,1.644,0,1,0,6.213,15.11,1.646,1.646,0,0,0,7.857,16.754Z" transform="translate(-0.007 0)" fill="#fff"/>
      </g>
    </g>
  </g>
</svg>
