<svg xmlns="http://www.w3.org/2000/svg" width="30.216" height="30.217" viewBox="0 0 30.216 30.217">
  <g id="money" transform="translate(-0.007)">
    <g id="Group_162" data-name="Group 162" transform="translate(4.02 26.676)">
      <g id="Group_161" data-name="Group 161">
        <path id="Path_69" data-name="Path 69" d="M69.01,452.174a.59.59,0,1,0,.173.417A.594.594,0,0,0,69.01,452.174Z" transform="translate(-68.003 -452.001)" fill="#fff"/>
      </g>
    </g>
    <g id="Group_164" data-name="Group 164" transform="translate(26.709 10.624)">
      <g id="Group_163" data-name="Group 163">
        <path id="Path_70" data-name="Path 70" d="M453.461,180.181a.588.588,0,1,0,.174.417A.593.593,0,0,0,453.461,180.181Z" transform="translate(-452.454 -180.008)" fill="#fff"/>
      </g>
    </g>
    <g id="Group_166" data-name="Group 166" transform="translate(0.007)">
      <g id="Group_165" data-name="Group 165" transform="translate(0)">
        <path id="Path_71" data-name="Path 71" d="M30.05.173A.591.591,0,0,0,29.633,0H15.115a.59.59,0,0,0-.59.59V2.279l-5.594,1.5a.59.59,0,0,0-.417.723l2.9,10.82L8.9,17.829a1.77,1.77,0,0,0-1.462-.773H1.777a1.772,1.772,0,0,0-1.77,1.77v9.62a1.772,1.772,0,0,0,1.77,1.771H7.443a1.773,1.773,0,0,0,1.718-1.344l.7.612a2.973,2.973,0,0,0,1.955.733H29.633a.59.59,0,0,0,.59-.59V.59A.591.591,0,0,0,30.05.173ZM8.033,28.446a.591.591,0,0,1-.59.59H1.777a.591.591,0,0,1-.59-.59v-9.62a.591.591,0,0,1,.59-.59H4.02v6.8a.59.59,0,0,0,1.18,0v-6.8H7.443a.591.591,0,0,1,.59.59v9.62ZM9.806,4.765,14.525,3.5V5.688l-.4.106a.59.59,0,0,0-.417.723,1.591,1.591,0,0,1-1.124,1.946.59.59,0,0,0-.417.724l2.3,8.518H13.287l-.61-2.388a.589.589,0,0,0-.1-.207Zm4.719,3.629v4.98L13.448,9.388A2.765,2.765,0,0,0,14.525,8.394ZM23,29.037H11.817a1.793,1.793,0,0,1-1.179-.442L9.213,27.352V19.189l2.577-2.577.467,1.828a.59.59,0,0,0,.572.444h11.6a.826.826,0,0,1,0,1.652H18.487a.59.59,0,1,0,0,1.18h7.793a.826.826,0,0,1,0,1.652H18.487a.59.59,0,1,0,0,1.18h6.53a.826.826,0,1,1,0,1.652h-6.53a.59.59,0,1,0,0,1.18H23a.826.826,0,1,1,0,1.652Zm6.039,0H24.831a2,2,0,0,0,0-1.652h.185a2.005,2.005,0,0,0,1.794-2.9,2,2,0,0,0,1.08-3.13v-7.48a.59.59,0,0,0-1.18,0v6.716a2.007,2.007,0,0,0-.43-.047H26.26a2.005,2.005,0,0,0-1.828-2.833h-.949a2.824,2.824,0,1,0-2.219,0H18.038V6.484a2.778,2.778,0,0,0,2.116-2.116h4.439a2.778,2.778,0,0,0,2.116,2.116V8.319a.59.59,0,1,0,1.18,0V5.957a.59.59,0,0,0-.59-.59,1.591,1.591,0,0,1-1.589-1.589.59.59,0,0,0-.59-.59H19.627a.59.59,0,0,0-.59.59,1.591,1.591,0,0,1-1.589,1.589.59.59,0,0,0-.59.59V17.705H15.705V1.181H29.043ZM22.374,16.753a1.644,1.644,0,1,1,1.644-1.644A1.646,1.646,0,0,1,22.374,16.753Z" transform="translate(-0.007 0)" fill="#fff"/>
      </g>
    </g>
  </g>
</svg>
