<svg xmlns="http://www.w3.org/2000/svg" width="30.721" height="30.72" viewBox="0 0 30.721 30.72">
  <g id="cancel" transform="translate(0 -0.003)">
    <path id="Path_99" data-name="Path 99" d="M30.72,15.363a15.36,15.36,0,1,0-15.36,15.36A15.36,15.36,0,0,0,30.72,15.363Z" transform="translate(0 0)" fill="#f21414"/>
    <path id="Path_100" data-name="Path 100" d="M149.677,135.074l4.491-5.213a1.359,1.359,0,0,0-2.059-1.774l-4.225,4.9-4.225-4.9a1.359,1.359,0,1,0-2.059,1.774l4.49,5.213-4.49,5.213a1.359,1.359,0,0,0,2.059,1.774l4.225-4.9,4.225,4.9a1.359,1.359,0,0,0,2.059-1.774Z" transform="translate(-132.523 -119.711)" fill="#fff"/>
  </g>
</svg>
