<svg xmlns="http://www.w3.org/2000/svg" width="20" height="20" viewBox="0 0 20 20">
  <g id="Group_1705" data-name="Group 1705" transform="translate(-60 -1140)">
    <g id="Path_3040" data-name="Path 3040" transform="translate(60 1140)" fill="red">
      <path d="M 10 19 C 5.037380218505859 19 1 14.96261978149414 1 10 C 1 5.037380218505859 5.037380218505859 1 10 1 C 14.96261978149414 1 19 5.037380218505859 19 10 C 19 14.96261978149414 14.96261978149414 19 10 19 Z" stroke="none"/>
      <path d="M 10 2 C 5.588789939880371 2 2 5.588789939880371 2 10 C 2 14.41121006011963 5.588789939880371 18 10 18 C 14.41121006011963 18 18 14.41121006011963 18 10 C 18 5.588789939880371 14.41121006011963 2 10 2 M 10 0 C 15.52285003662109 0 20 4.477149963378906 20 10 C 20 15.52285003662109 15.52285003662109 20 10 20 C 4.477149963378906 20 0 15.52285003662109 0 10 C 0 4.477149963378906 4.477149963378906 0 10 0 Z" stroke="none" fill="#fff"/>
    </g>
    <path id="Path_100" data-name="Path 100" d="M145.084,130.615l2.037-2.1a.5.5,0,0,0-.065-.771.673.673,0,0,0-.869.057l-1.917,1.973-1.916-1.973a.672.672,0,0,0-.869-.057.5.5,0,0,0-.065.771l2.037,2.1-2.037,2.1a.5.5,0,0,0,.065.771.662.662,0,0,0,.4.132.651.651,0,0,0,.467-.19l1.916-1.973,1.917,1.973a.651.651,0,0,0,.467.19.662.662,0,0,0,.4-.132.5.5,0,0,0,.065-.771Z" transform="translate(-74.27 1019.385)" fill="#fff"/>
  </g>
</svg>
