<svg xmlns="http://www.w3.org/2000/svg" width="31.32" height="31.32" viewBox="0 0 31.32 31.32">
  <path id="Path_2" data-name="Path 2" d="M22.147,11.073a2.483,2.483,0,0,0-2.6-2.336H16a2.6,2.6,0,0,1-2.6-2.6V2.6A2.483,2.483,0,0,0,11.074,0,2.483,2.483,0,0,0,8.738,2.6V6.142a2.6,2.6,0,0,1-2.6,2.6H2.6A2.483,2.483,0,0,0,0,11.073a2.483,2.483,0,0,0,2.6,2.336H6.142a2.6,2.6,0,0,1,2.6,2.6v3.547a2.483,2.483,0,0,0,2.336,2.6,2.483,2.483,0,0,0,2.335-2.6V16a2.6,2.6,0,0,1,2.6-2.6h3.547A2.483,2.483,0,0,0,22.147,11.073Z" transform="translate(0 15.66) rotate(-45)" fill="#efefef"/>
</svg>
