<svg xmlns="http://www.w3.org/2000/svg" width="28" height="28" viewBox="0 0 28 28">
  <g id="Group_194" data-name="Group 194" transform="translate(-261 -223)">
    <circle id="Ellipse_20" data-name="Ellipse 20" cx="14" cy="14" r="14" transform="translate(261 223)" fill="#23bde4"/>
    <g id="photo-camera" transform="translate(268 221)">
      <g id="Group_157" data-name="Group 157" transform="translate(0 10)">
        <path id="Path_80" data-name="Path 80" d="M7.014,14.208a2.1,2.1,0,1,0,2.1,2.1A2.1,2.1,0,0,0,7.014,14.208Zm5.611-2.1H10.942a.625.625,0,0,1-.554-.4L9.953,10.4A.625.625,0,0,0,9.4,10H4.629a.625.625,0,0,0-.554.4L3.64,11.705a.625.625,0,0,1-.554.4H1.4a1.407,1.407,0,0,0-1.4,1.4V19.82a1.407,1.407,0,0,0,1.4,1.4H12.625a1.407,1.407,0,0,0,1.4-1.4V13.507A1.407,1.407,0,0,0,12.625,12.1ZM7.014,19.82a3.507,3.507,0,1,1,3.507-3.507A3.507,3.507,0,0,1,7.014,19.82Zm5.12-5.332A.491.491,0,1,1,12.625,14,.491.491,0,0,1,12.134,14.488Z" transform="translate(0 -10)" fill="#fff"/>
      </g>
    </g>
  </g>
</svg>
