<svg xmlns="http://www.w3.org/2000/svg" width="74" height="74" viewBox="0 0 74 74">
  <g id="Group_1712" data-name="Group 1712" transform="translate(-69 -176)">
    <circle id="Ellipse_29" data-name="Ellipse 29" cx="37" cy="37" r="37" transform="translate(69 176)" fill="#def8ff"/>
    <g id="message" transform="translate(84.759 187.941)">
      <path id="Path_82" data-name="Path 82" d="M44.607,57.284a1.142,1.142,0,0,1-1.141,1.145l-42.288.058h0A1.143,1.143,0,0,1,.033,57.345L0,32.581c0-.007,0-.013,0-.019a1.141,1.141,0,0,1,.492-.924L6.91,27.2V22.5a1.142,1.142,0,0,1,1.142-1.142h7.313l6.291-4.348a1.142,1.142,0,0,1,1.3,0l6.251,4.346h7.345A1.142,1.142,0,0,1,37.7,22.5v4.758L44.082,31.7a1.139,1.139,0,0,1,.449.634.652.652,0,0,1,.041.227ZM42.319,55.01l-.027-20.3L28.5,44.293ZM37.7,35.116l3.651-2.537L37.7,30.042ZM4.519,56.2l35.539-.049L22.321,42.388ZM35.412,36.705V23.643H9.195V36.755L18,42.845l3.616-2.8A1.142,1.142,0,0,1,23,40.029l.016.011,3.589,2.784ZM19.386,21.359h5.82l-2.9-2.017ZM2.316,55.015l13.8-10.7L2.287,34.761ZM6.91,35.177v-5.2l-3.76,2.6Z" transform="translate(0 -16.808)"/>
      <path id="Path_83" data-name="Path 83" d="M340.935,222.237l.027,20.3-13.817-10.718Z" transform="translate(-298.644 -204.339)" fill="#23bde4"/>
      <path id="Path_84" data-name="Path 84" d="M436.336,171.238l-3.651,2.537V168.7Z" transform="translate(-394.988 -155.468)" fill="#fff"/>
      <path id="Path_85" data-name="Path 85" d="M87.41,324.176l-35.539.049,17.8-13.809Z" transform="translate(-47.352 -284.836)" fill="#fff"/>
      <path id="Path_86" data-name="Path 86" d="M131.756,95.26v13.062l-8.8,6.12-3.589-2.784-.016-.011a1.142,1.142,0,0,0-1.385.011l-3.616,2.8-8.81-6.09V95.26Zm-4.232,5.712a1.143,1.143,0,0,0-1.142-1.142H110.914a1.142,1.142,0,1,0,0,2.285h15.468A1.143,1.143,0,0,0,127.524,100.972Zm0,5.94a1.143,1.143,0,0,0-1.142-1.142H110.914a1.142,1.142,0,0,0,0,2.285h15.468A1.143,1.143,0,0,0,127.524,106.912Z" transform="translate(-96.344 -88.425)" fill="#fff"/>
      <g id="Group_173" data-name="Group 173" transform="translate(13.427 11.404)">
        <path id="Path_87" data-name="Path 87" d="M170.729,147.708a1.142,1.142,0,0,1,0,2.285H155.261a1.142,1.142,0,0,1,0-2.285Z" transform="translate(-154.119 -147.708)" fill="#23bde4"/>
        <path id="Path_88" data-name="Path 88" d="M170.729,215.891a1.142,1.142,0,0,1,0,2.285H155.261a1.142,1.142,0,0,1,0-2.285Z" transform="translate(-154.119 -209.951)" fill="#23bde4"/>
      </g>
      <path id="Path_89" data-name="Path 89" d="M228.332,47.9h-5.82l2.919-2.017Z" transform="translate(-203.126 -43.347)" fill="#fff"/>
      <path id="Path_90" data-name="Path 90" d="M40.074,232.421l-13.8,10.7-.029-20.254Z" transform="translate(-23.963 -204.915)" fill="#23bde4"/>
      <path id="Path_91" data-name="Path 91" d="M39.923,167.993v5.2l-3.76-2.6Z" transform="translate(-33.012 -154.821)" fill="#fff"/>
    </g>
  </g>
</svg>
