<svg xmlns="http://www.w3.org/2000/svg" width="176.202" height="100.625" viewBox="0 0 176.202 100.625">
  <g id="Group_49" data-name="Group 49" transform="translate(-147.132 -296.45)">
    <g id="Group_44" data-name="Group 44" transform="translate(176.193 298.272)">
      <path id="Path_24" data-name="Path 24" d="M202.159,334.852a6.162,6.162,0,0,0-3.551-1.147,5.26,5.26,0,0,0-4.345,2.167L187.01,346.12l0,0-1.441,2.037a5.877,5.877,0,0,0,9.562,6.769l8.7-12.29A5.651,5.651,0,0,0,202.159,334.852Z" transform="translate(-137.684 -260.023)" fill="#d9000d"/>
      <path id="Path_25" data-name="Path 25" d="M192.867,353.3l7.258-10.251v0l2.945-4.159a7.895,7.895,0,0,0-12.888-9.122l-10.2,14.408a7.9,7.9,0,0,0,12.886,9.126Z" transform="translate(-143.957 -267.492)" fill="#d9000d"/>
      <path id="Path_26" data-name="Path 26" d="M184.9,332.108a6.193,6.193,0,0,0,1.013-4.659,7.584,7.584,0,0,0-3.125-4.848,7.67,7.67,0,0,0-4.416-1.431,6.343,6.343,0,0,0-5.249,2.6l-6.277,8.871a6.208,6.208,0,0,0-.949,4.98,7.754,7.754,0,0,0,8.344,5.908,6.2,6.2,0,0,0,4.38-2.552Z" transform="translate(-157.094 -272.892)" fill="#d9000d"/>
      <path id="Path_27" data-name="Path 27" d="M195.722,334.788a7.9,7.9,0,0,0-6.427-12.456,7.968,7.968,0,0,0-1.348.116,7.842,7.842,0,0,0-5.113,3.218l-9.412,13.3a7.894,7.894,0,1,0,12.886,9.122Z" transform="translate(-150.695 -271.699)" fill="#d9000d"/>
      <path id="Path_28" data-name="Path 28" d="M260.736,365.847,233,334.593a.253.253,0,0,1-.02-.31l.1-.14a.25.25,0,0,1,.193-.109.257.257,0,0,1,.207.085l27.083,30.759a4.921,4.921,0,0,0,4.013,1.573,7.715,7.715,0,0,0,4.692-1.988c2.819-2.481,3.5-6.331,1.518-8.587l-25-28.169c-11.684,3.332-17.894-4.38-19.857-9.791-.045.049-.091.1-.136.14l-15.374,15.291a14.322,14.322,0,0,1-8.542,2.552c-5.15,0-10.162-2.126-12.081-4.388-.969-1.141-1.036-2.229-.189-3.058l23.432-23.408a18.536,18.536,0,0,1,8.875-4.266c.62-.087,2.756-.1,5.273-.087-1.3-2.268-3.774-3.342-7.77-3.342H194.741a22,22,0,0,0-19.756,12.509.258.258,0,0,1-.231.144H161.471v45.055l10.537.051,5.077-7.174c2.244-3.168,6.9-3.749,10.371-1.287a8.1,8.1,0,0,1,3.332,5.172,6.985,6.985,0,0,1-.069,2.71l2.481-3.506a8.372,8.372,0,0,1,14.795,7.489,8.382,8.382,0,0,1,13,10.529l-1.613,2.278a6.391,6.391,0,0,1,6.858.45,6.157,6.157,0,0,1,1.79,8.494l-4.8,6.777c.022.012.049.012.069.032l1.67,1.863a4.96,4.96,0,0,0,4.013,1.573,7.67,7.67,0,0,0,4.694-1.986,7.508,7.508,0,0,0,2.641-5.052,4.756,4.756,0,0,0-1.127-3.533l-12.415-13.992a.253.253,0,0,1,.02-.357.249.249,0,0,1,.357.018l0,0,17.553,19.519c1.986,2.256,5.892,2.065,8.707-.413s3.5-6.331,1.516-8.583L224.817,346.7a.253.253,0,0,1-.018-.314l.105-.154a.263.263,0,0,1,.195-.109.248.248,0,0,1,.2.085l25.21,28.637c1.984,2.256,5.89,2.061,8.7-.416S262.718,368.1,260.736,365.847Z" transform="translate(-161.471 -297.349)" fill="#d9000d"/>
      <path id="Path_29" data-name="Path 29" d="M249.315,318.5c-.869-6.721-5.458-17.7-25.865-19.079-1.974-.045-14.1-.31-15.68-.081a17.91,17.91,0,0,0-8.589,4.124l-23.435,23.406c-.809.795-.326,1.729.221,2.371,1.473,1.739,4.9,3.314,8.53,3.922,2.566.432,7.458.724,11.378-2.142l15.348-15.269a5.409,5.409,0,0,0,.375-.405.246.246,0,0,1,.253-.1.253.253,0,0,1,.2.154c1.745,5.278,7.835,13.285,19.555,9.829.272-.081.547-.168.825-.259A19.017,19.017,0,0,0,236.7,323a.256.256,0,0,1,.349.073.252.252,0,0,1-.073.351,19.264,19.264,0,0,1-4.38,2.027c-.164.055-.324.1-.486.154L256.95,353.6c2.167,2.466,1.463,6.637-1.563,9.3a8.209,8.209,0,0,1-5.008,2.112,5.737,5.737,0,0,1-2.858-.557,6.235,6.235,0,0,1-.093,5.636h17.3V318.717H249.567A.255.255,0,0,1,249.315,318.5Z" transform="translate(-147.256 -295.404)" fill="#d9000d"/>
      <path id="Path_30" data-name="Path 30" d="M259.218,374.43c-2.815,2.477-6.721,2.671-8.7.416L225.3,346.208a.248.248,0,0,0-.2-.085.263.263,0,0,0-.195.109l-.105.154a.253.253,0,0,0,.018.314l26.112,29.427c1.982,2.252,1.3,6.1-1.516,8.583s-6.72,2.669-8.707.413l-17.553-19.519,0,0a.249.249,0,0,0-.357-.018.253.253,0,0,0-.02.357l12.415,13.992a4.756,4.756,0,0,1,1.127,3.533,7.508,7.508,0,0,1-2.641,5.052,7.67,7.67,0,0,1-4.694,1.986,4.96,4.96,0,0,1-4.013-1.573l-1.67-1.863c-.02-.02-.047-.02-.069-.032l4.8-6.777a6.157,6.157,0,0,0-1.79-8.494,6.391,6.391,0,0,0-6.858-.45l1.613-2.278a8.379,8.379,0,0,0-13-10.529,8.381,8.381,0,0,0-14.795-7.489l-2.481,3.506a6.985,6.985,0,0,0,.069-2.71,8.1,8.1,0,0,0-3.332-5.172c-3.472-2.462-8.127-1.881-10.371,1.287l-5.077,7.174-10.537-.051V310h13.283a.258.258,0,0,0,.231-.144,22,22,0,0,1,19.756-12.509h24.677c4,0,6.469,1.074,7.77,3.342-2.517-.014-4.653,0-5.273.087a18.536,18.536,0,0,0-8.875,4.266l-23.432,23.408c-.847.829-.78,1.917.189,3.058,1.919,2.262,6.931,4.388,12.081,4.388a14.322,14.322,0,0,0,8.542-2.552l15.374-15.291c.045-.045.091-.091.136-.14,1.964,5.411,8.174,13.123,19.857,9.791l25,28.169c1.982,2.256,1.3,6.106-1.518,8.587a7.715,7.715,0,0,1-4.692,1.988,4.921,4.921,0,0,1-4.013-1.573l-27.083-30.759a.257.257,0,0,0-.207-.085.25.25,0,0,0-.193.109l-.1.14a.253.253,0,0,0,.02.31l27.731,31.253C262.718,368.1,262.037,371.947,259.218,374.43Z" transform="translate(-161.471 -297.349)" fill="#fff"/>
      <g id="Group_43" data-name="Group 43" transform="translate(8.64 3.84)">
        <path id="Path_31" data-name="Path 31" d="M174.238,343.526a7.754,7.754,0,0,1-8.344-5.908,6.208,6.208,0,0,1,.949-4.98l6.277-8.871a6.343,6.343,0,0,1,5.249-2.6,7.67,7.67,0,0,1,4.416,1.431,7.584,7.584,0,0,1,3.125,4.848,6.193,6.193,0,0,1-1.013,4.659l-6.279,8.867A6.2,6.2,0,0,1,174.238,343.526Z" transform="translate(-165.734 -276.732)" fill="#dad8da"/>
        <path id="Path_32" data-name="Path 32" d="M181.195,351.307a7.891,7.891,0,0,1-7.772-12.342l9.412-13.3a7.842,7.842,0,0,1,5.113-3.218,7.968,7.968,0,0,1,1.348-.116,7.9,7.9,0,0,1,6.427,12.456l-9.414,13.3A7.837,7.837,0,0,1,181.195,351.307Z" transform="translate(-159.335 -275.539)" fill="#dad8da"/>
        <path id="Path_33" data-name="Path 33" d="M187.756,356.518a7.9,7.9,0,0,1-7.774-12.345l10.2-14.408a7.895,7.895,0,0,1,12.888,9.122l-2.945,4.159v0L192.867,353.3A7.838,7.838,0,0,1,187.756,356.518Z" transform="translate(-152.597 -271.331)" fill="#dad8da"/>
        <path id="Path_34" data-name="Path 34" d="M195.126,354.931a5.877,5.877,0,0,1-9.562-6.769l1.441-2.037,0,0,7.253-10.249a5.26,5.26,0,0,1,4.345-2.167,6.162,6.162,0,0,1,3.551,1.147,5.651,5.651,0,0,1,1.668,7.789Z" transform="translate(-146.324 -263.863)" fill="#dad8da"/>
        <path id="Path_35" data-name="Path 35" d="M264.728,370.089h-17.3a6.235,6.235,0,0,0,.093-5.636,5.737,5.737,0,0,0,2.858.557,8.209,8.209,0,0,0,5.008-2.112c3.026-2.665,3.729-6.836,1.563-9.3L232.109,325.6c.162-.051.322-.1.486-.154a19.264,19.264,0,0,0,4.38-2.027.252.252,0,0,0,.073-.351A.256.256,0,0,0,236.7,323a19.017,19.017,0,0,1-4.264,1.972c-.278.091-.553.178-.825.259-11.72,3.455-17.811-4.552-19.555-9.829a.253.253,0,0,0-.2-.154.246.246,0,0,0-.253.1,5.409,5.409,0,0,1-.375.405l-15.348,15.269c-3.92,2.866-8.812,2.574-11.378,2.142-3.628-.608-7.057-2.183-8.53-3.922-.547-.642-1.03-1.577-.221-2.371l23.435-23.406a17.91,17.91,0,0,1,8.589-4.124c1.579-.229,13.706.036,15.68.081,20.407,1.382,25,12.359,25.865,19.079a.255.255,0,0,0,.251.221h15.162Z" transform="translate(-155.895 -299.244)" fill="#dad8da"/>
      </g>
    </g>
    <g id="Group_45" data-name="Group 45" transform="translate(294.233 318.432)">
      <rect id="Rectangle_30" data-name="Rectangle 30" width="27.583" height="58.214" fill="#fff"/>
      <rect id="Rectangle_31" data-name="Rectangle 31" width="27.583" height="8.56" transform="translate(0 49.654)" fill="#dad8da"/>
    </g>
    <g id="Group_46" data-name="Group 46" transform="translate(148.651 304.297)">
      <rect id="Rectangle_32" data-name="Rectangle 32" width="27.583" height="58.214" fill="#23bde4"/>
      <rect id="Rectangle_33" data-name="Rectangle 33" width="27.583" height="8.56" transform="translate(0 49.654)" fill="#fff"/>
    </g>
    <path id="Path_36" data-name="Path 36" d="M173.2,357.757H173.2l-10.91-.053a1.52,1.52,0,0,1-1.512-1.52V310.623a1.521,1.521,0,0,1,1.52-1.52h12.6a23.788,23.788,0,0,1,20.921-12.653H220.5c4.858,0,7.979,1.514,9.54,4.629a1.52,1.52,0,1,1-2.718,1.362c-.689-1.374-2.085-2.951-6.822-2.951H195.817A20.729,20.729,0,0,0,177.2,311.277a1.519,1.519,0,0,1-1.372.865H163.814v42.53l9.4.045a1.52,1.52,0,0,1-.008,3.04Z" transform="translate(14.006)" fill="#313132"/>
    <path id="Path_37" data-name="Path 37" d="M243.786,372.723H226.752a1.52,1.52,0,0,1,0-3.04h15.514V320.846H228.373a1.518,1.518,0,0,1-1.508-1.323c-1.514-11.688-11.826-18.125-29.032-18.125a1.52,1.52,0,0,1,0-3.04c24.136,0,30.376,11.623,31.837,19.448h14.116a1.521,1.521,0,0,1,1.52,1.52V371.2A1.521,1.521,0,0,1,243.786,372.723Z" transform="translate(50.493 1.959)" fill="#313132"/>
    <path id="Path_38" data-name="Path 38" d="M248.065,368.441H220.484a1.521,1.521,0,0,1-1.52-1.52V307.444a1.521,1.521,0,0,1,1.52-1.52h27.581a1.52,1.52,0,1,1,0,3.04H222V365.4h26.061a1.52,1.52,0,0,1,0,3.04Z" transform="translate(73.749 9.727)" fill="#313132"/>
    <path id="Path_39" data-name="Path 39" d="M198.513,377.774c-.166,0-.332-.006-.5-.016a6.571,6.571,0,0,1-4.578-2.163l-1.66-1.85a1.521,1.521,0,1,1,2.264-2.031l1.67,1.862a3.55,3.55,0,0,0,2.5,1.147,6.144,6.144,0,0,0,4.428-1.664,6.244,6.244,0,0,0,2.215-4.183,3.554,3.554,0,0,0-.813-2.616l-12.413-13.986a1.52,1.52,0,0,1,2.266-2.027l17.555,19.523c1.532,1.735,4.637,1.5,6.929-.521s2.922-5.067,1.4-6.8l-26.11-29.421a1.519,1.519,0,0,1-.113-1.875,1.715,1.715,0,0,1,1.216-.73,1.6,1.6,0,0,1,1.283.438l25.21,28.635c1.522,1.725,4.625,1.49,6.917-.529s2.922-5.071,1.4-6.8l-27.729-31.249a1.524,1.524,0,0,1-.122-1.86,1.7,1.7,0,0,1,1.21-.736,1.579,1.579,0,0,1,1.285.444l27.085,30.761a3.725,3.725,0,0,0,3.006,1.141A6.427,6.427,0,0,0,238.228,349c2.294-2.018,2.924-5.069,1.4-6.8l-25.058-28.236a1.52,1.52,0,0,1,2.274-2.019l25.064,28.242c2.631,3,1.877,7.971-1.676,11.1a9.473,9.473,0,0,1-5.786,2.426,7.654,7.654,0,0,1-1.06-.024,9.016,9.016,0,0,1-3.2,7.566,9.279,9.279,0,0,1-6.65,2.4,8.922,8.922,0,0,1-3.158,7.876c-3.551,3.125-8.579,3.237-11.208.261l-1.443-1.605a9.554,9.554,0,0,1-3.089,5.154A9.41,9.41,0,0,1,198.513,377.774Z" transform="translate(45.285 15.385)" fill="#313132"/>
    <g id="Group_48" data-name="Group 48" transform="translate(183.42 344.725)">
      <g id="Group_47" data-name="Group 47">
        <path id="Path_40" data-name="Path 40" d="M174.447,346.228a9.421,9.421,0,0,1-5.438-1.763,9.3,9.3,0,0,1-3.768-5.588,7.94,7.94,0,0,1,1.232-6.386l6.277-8.869a7.945,7.945,0,0,1,5.614-3.285,9.525,9.525,0,0,1,10.291,7.284,7.954,7.954,0,0,1-1.236,6.39l-6.277,8.867a7.945,7.945,0,0,1-5.614,3.285A9.235,9.235,0,0,1,174.447,346.228Zm5-22.918a5.671,5.671,0,0,0-.715.043,4.953,4.953,0,0,0-3.5,2.027l-6.277,8.869a4.952,4.952,0,0,0-.746,3.976,6.5,6.5,0,0,0,6.952,4.921,4.947,4.947,0,0,0,3.5-2.023l6.277-8.869h0a4.959,4.959,0,0,0,.746-3.978,6.294,6.294,0,0,0-2.556-3.764A6.387,6.387,0,0,0,179.451,323.31Z" transform="translate(-165.037 -320.27)" fill="#313132"/>
        <path id="Path_41" data-name="Path 41" d="M180.919,354.068a9.667,9.667,0,0,1-7.868-15.257h0l9.414-13.3a9.668,9.668,0,0,1,15.782,11.173l-9.416,13.3a9.6,9.6,0,0,1-6.262,3.946A9.868,9.868,0,0,1,180.919,354.068Zm-5.387-13.5a6.626,6.626,0,1,0,10.816,7.657l9.416-13.3a6.627,6.627,0,0,0-10.818-7.657Z" transform="translate(-158.638 -319.071)" fill="#313132"/>
        <path id="Path_42" data-name="Path 42" d="M187.487,359.283a9.674,9.674,0,0,1-7.876-15.261h0l10.2-14.406a9.667,9.667,0,1,1,15.78,11.173l-10.2,14.41a9.715,9.715,0,0,1-7.908,4.084Zm-5.393-13.5a6.629,6.629,0,1,0,10.818,7.663l10.2-14.412a6.626,6.626,0,1,0-10.816-7.657Z" transform="translate(-151.901 -314.867)" fill="#313132"/>
      </g>
      <path id="Path_43" data-name="Path 43" d="M191.85,359.747a7.908,7.908,0,0,1-4.572-1.477,7.423,7.423,0,0,1-2.085-10.259h0l8.7-12.29a7.648,7.648,0,0,1,12.46,8.82l-8.7,12.288a6.9,6.9,0,0,1-4.811,2.854A7.344,7.344,0,0,1,191.85,359.747Zm-4.175-9.979a4.383,4.383,0,0,0,1.36,6.021,4.829,4.829,0,0,0,3.409.88,3.9,3.9,0,0,0,2.724-1.595l8.7-12.292a4.617,4.617,0,0,0-7.495-5.3Z" transform="translate(-145.626 -307.397)" fill="#313132"/>
    </g>
    <path id="Path_44" data-name="Path 44" d="M188.85,336.053c-5.594,0-11.066-2.327-13.157-4.793-1.668-1.97-1.149-3.764-.107-4.783l23.422-23.4a19.622,19.622,0,0,1,9.59-4.627c1.788-.257,13.865.016,16.268.071a1.52,1.52,0,1,1-.071,3.04c-5.468-.132-14.586-.27-15.764-.1a16.7,16.7,0,0,0-7.882,3.774l-23.428,23.4c-.059.312.644,1.378,2.884,2.5,4.465,2.237,11.206,2.872,15.514-.2l15.289-15.21c.128-.126.233-.245.338-.367a1.52,1.52,0,0,1,2.59.521c1.6,4.844,7.2,12.186,17.995,9.009.251-.075.517-.156.782-.245a17.577,17.577,0,0,0,3.972-1.832,1.521,1.521,0,0,1,1.658,2.55,20.767,20.767,0,0,1-4.667,2.167c-.3.1-.59.189-.878.276-11.461,3.378-18.084-3.121-20.834-8.741l-14.187,14.114a1.489,1.489,0,0,1-.174.148A15.359,15.359,0,0,1,188.85,336.053Z" transform="translate(28.219 1.946)" fill="#313132"/>
    <path id="Path_45" data-name="Path 45" d="M176.235,360.827H148.652a1.52,1.52,0,1,1,0-3.04h26.063V302.611H148.652a1.52,1.52,0,0,1,0-3.04h27.583a1.521,1.521,0,0,1,1.52,1.52v58.216A1.521,1.521,0,0,1,176.235,360.827Z" transform="translate(0 3.204)" fill="#313132"/>
  </g>
</svg>
