<svg xmlns="http://www.w3.org/2000/svg" width="176.809" height="124.271" viewBox="0 0 176.809 124.271">
  <g id="Group_19" data-name="Group 19" transform="translate(-1286.386 -459.345)">
    <path id="Path_9" data-name="Path 9" d="M1326.855,502.949a7.043,7.043,0,0,0-7.025,7.023l0,23.948a7.056,7.056,0,0,0,7.03,7.028l48.769,0a7.049,7.049,0,0,1,7.027,7.025l0,15.385c0,3.863,2.237,4.787,4.969,2.057l39.186-39.187a7.045,7.045,0,0,0,0-9.932l-39.186-39.183c-2.732-2.732-4.969-1.8-4.969,2.059l0,16.753a7.047,7.047,0,0,1-7.023,7.028Z" transform="translate(34.342 16.633)" fill="#23bde4"/>
    <g id="Group_18" data-name="Group 18" transform="translate(1286.386 459.345)">
      <path id="Path_10" data-name="Path 10" d="M1397.6,488.174a9.49,9.49,0,0,1,2.791,6.725,2.49,2.49,0,1,1-4.98,0,4.54,4.54,0,0,0-4.536-4.538l-48.774,0a9.536,9.536,0,0,1-9.512-9.515l0-15.385a5.294,5.294,0,0,0-.065-.864,5.39,5.39,0,0,0-.659.57l-39.181,39.183a4.545,4.545,0,0,0,0,6.417l39.183,39.177a5.644,5.644,0,0,0,.659.57,6.062,6.062,0,0,0,.065-.866l-.112-16.583a2.488,2.488,0,1,1,4.976-.032l.111,16.6c0,3.985-1.879,5.357-3,5.819s-3.414.821-6.217-1.986l-39.183-39.177a9.523,9.523,0,0,1,0-13.455l39.181-39.185c2.81-2.809,5.1-2.45,6.225-1.986s3,1.834,2.993,5.8v15.385a4.551,4.551,0,0,0,4.539,4.534l48.774,0A9.484,9.484,0,0,1,1397.6,488.174Z" transform="translate(-1286.386 -459.345)" fill="#285db3"/>
    </g>
  </g>
</svg>
