<svg xmlns="http://www.w3.org/2000/svg" width="39.082" height="39.083" viewBox="0 0 39.082 39.083">
  <path id="Path_48" data-name="Path 48" d="M1041.126,1026a19.541,19.541,0,1,0,19.542,19.542A19.541,19.541,0,0,0,1041.126,1026Zm10.244,20.595-8.309,8.31c-.581.579-1.054.383-1.054-.437V1051.2a1.494,1.494,0,0,0-1.49-1.491h-6.666a1.494,1.494,0,0,1-1.49-1.49v-5.078a1.5,1.5,0,0,1,1.49-1.49h6.666a1.493,1.493,0,0,0,1.49-1.49v-3.552c0-.82.473-1.016,1.054-.437l8.309,8.309A1.493,1.493,0,0,1,1051.37,1046.593Z" transform="translate(-1021.585 -1025.998)" fill="#23bde4"/>
</svg>
