<svg xmlns="http://www.w3.org/2000/svg" width="26.994" height="27.125" viewBox="0 0 26.994 27.125">
  <g id="Group_6" data-name="Group 6" transform="translate(218.115 -322.115) rotate(90)">
    <path id="Rectangle_7" data-name="Rectangle 7" d="M3.648,0h0A3.651,3.651,0,0,1,7.3,3.651V11.56a3.647,3.647,0,0,1-3.647,3.647h0A3.648,3.648,0,0,1,0,11.559V3.648A3.648,3.648,0,0,1,3.648,0Z" transform="translate(341.942 202.909)" fill="#fff"/>
    <path id="Rectangle_8" data-name="Rectangle 8" d="M3.649,0h0A3.648,3.648,0,0,1,7.3,3.648v13.8A3.648,3.648,0,0,1,3.649,21.1h0A3.649,3.649,0,0,1,0,17.45V3.649A3.649,3.649,0,0,1,3.649,0Z" transform="translate(332.028 197.016)" fill="#fff"/>
    <path id="Path_1" data-name="Path 1" d="M364.439,215.375a2.736,2.736,0,0,0,2.734,2.74H369a2.738,2.738,0,0,0,2.736-2.74V193.857A2.736,2.736,0,0,0,369,191.121h-1.825a2.735,2.735,0,0,0-2.734,2.736Z" transform="translate(-42.324)" fill="#fff"/>
  </g>
</svg>
