<svg xmlns="http://www.w3.org/2000/svg" width="20.5" height="20.5" viewBox="0 0 20.5 20.5">
  <path id="Path_17" data-name="Path 17" d="M1184.03,331.033a2.3,2.3,0,0,0-2.4-2.162h-3.283a2.41,2.41,0,0,1-2.4-2.4v-3.283a2.174,2.174,0,1,0-4.324,0v3.283a2.409,2.409,0,0,1-2.4,2.4h-3.283a2.174,2.174,0,1,0,0,4.324h3.283a2.409,2.409,0,0,1,2.4,2.4v3.283a2.174,2.174,0,1,0,4.324,0V335.6a2.409,2.409,0,0,1,2.4-2.4h3.283A2.3,2.3,0,0,0,1184.03,331.033Z" transform="translate(-1163.529 -320.783)" fill="#707070"/>
</svg>
