<svg xmlns="http://www.w3.org/2000/svg" width="25.556" height="27.037" viewBox="0 0 25.556 27.037">
  <path id="Path_23" data-name="Path 23" d="M343.965,474.3a10.792,10.792,0,0,0-.108-1.511l2.19-2.9a13.5,13.5,0,0,0-2.312-4.142l-3.618.339a10.679,10.679,0,0,0-2.863-1.711l-1.416-3.346a13.481,13.481,0,0,0-4.743-.07l-1.513,3.3a10.689,10.689,0,0,0-2.912,1.629l-3.606-.446a13.511,13.511,0,0,0-2.437,4.071l2.1,2.966a10.593,10.593,0,0,0-.05,3.333l-2.19,2.9a13.492,13.492,0,0,0,2.312,4.142l3.618-.34a10.689,10.689,0,0,0,2.864,1.711l1.416,3.346a13.48,13.48,0,0,0,4.743.07l1.514-3.3a10.7,10.7,0,0,0,2.912-1.629l3.606.446a13.51,13.51,0,0,0,2.437-4.071l-2.1-2.966A10.752,10.752,0,0,0,343.965,474.3Zm-4.044,0a6.652,6.652,0,1,1-6.652-6.652A6.652,6.652,0,0,1,339.921,474.3Z" transform="translate(-320.491 -460.781)" fill="#fff"/>
</svg>
