<svg xmlns="http://www.w3.org/2000/svg" width="60" height="60" viewBox="0 0 60 60">
  <g id="Group_1713" data-name="Group 1713" transform="translate(-75.25 -411)">
    <g id="Group_1712" data-name="Group 1712" transform="translate(75.25 411)">
      <circle id="Ellipse_1" data-name="Ellipse 1" cx="30" cy="30" r="30" transform="translate(0)" fill="#23bde4"/>
      <path id="Path_9" data-name="Path 9" d="M1344.515,482.176a1.7,1.7,0,0,1,1.7,1.7v5.8a1.708,1.708,0,0,1-1.7,1.7h-11.8a1.706,1.706,0,0,0-1.7,1.7V496.8c0,.935-.542,1.159-1.2.5l-9.485-9.485a1.705,1.705,0,0,1,0-2.4l9.485-9.484c.661-.661,1.2-.437,1.2.5v4.055a1.706,1.706,0,0,0,1.7,1.7Z" transform="translate(-1311.873 -452.595)" fill="#fff"/>
      <g id="Group_18" data-name="Group 18" transform="translate(24.168 15)">
        <path id="Path_10" data-name="Path 10" d="M1287.061,466.323a2.3,2.3,0,0,0-.676,1.628.6.6,0,1,0,1.206,0,1.1,1.1,0,0,1,1.1-1.1H1300.5a2.308,2.308,0,0,0,2.3-2.3v-3.724a1.275,1.275,0,0,1,.016-.209,1.3,1.3,0,0,1,.16.138l9.484,9.484a1.1,1.1,0,0,1,0,1.553l-9.484,9.483a1.356,1.356,0,0,1-.16.138,1.477,1.477,0,0,1-.016-.21l.027-4.014a.6.6,0,1,0-1.2-.008l-.027,4.017c0,.965.455,1.3.726,1.409s.826.2,1.5-.481l9.484-9.483a2.305,2.305,0,0,0,0-3.257l-9.484-9.485c-.68-.68-1.235-.593-1.507-.481s-.725.444-.725,1.4v3.724a1.1,1.1,0,0,1-1.1,1.1h-11.806A2.3,2.3,0,0,0,1287.061,466.323Z" transform="translate(-1286.386 -459.345)" fill="#fff"/>
      </g>
    </g>
  </g>
</svg>
